<?xml version="1.0" encoding="UTF-8"?>
<svg version="1.1" xmlns="http://www.w3.org/2000/svg" width="207" height="208">
<path d="M0 0 C68.31 0 136.62 0 207 0 C207 68.64 207 137.28 207 208 C138.69 208 70.38 208 0 208 C0 139.36 0 70.72 0 0 Z " fill="#F6ECEF" transform="translate(0,0)"/>
<path d="M0 0 C45.45714286 0 45.45714286 0 53.3125 5.1875 C59.41811928 11.57710157 61.32096983 18.67280729 61.21875 27.3359375 C60.69133217 33.75913327 58.59875493 39.40124507 54 44 C50.30291022 46.83181345 47.54974086 48.23016229 43 49 C43.5347998 50.00377686 44.06959961 51.00755371 44.62060547 52.04174805 C46.60984597 55.77702921 48.59570634 59.51409858 50.58056641 63.25170898 C51.43902416 64.86710562 52.29838977 66.48202014 53.15869141 68.09643555 C54.39726675 70.42109113 55.63253421 72.74747826 56.8671875 75.07421875 C57.25059296 75.79212082 57.63399841 76.51002289 58.02902222 77.24967957 C58.38924469 77.93000748 58.74946716 78.61033539 59.12060547 79.3112793 C59.43593231 79.90418259 59.75125916 80.49708588 60.07614136 81.10795593 C61.171114 83.35043806 62.07318185 85.68295462 63 88 C58.71 88 54.42 88 50 88 C49.45996338 86.94498291 48.91992676 85.88996582 48.36352539 84.80297852 C46.36578509 80.90143201 44.36553122 77.00117889 42.36450195 73.10131836 C41.49760037 71.41091716 40.63138753 69.72016257 39.76586914 68.02905273 C38.52409428 65.60307815 37.27987524 63.17837129 36.03515625 60.75390625 C35.64658951 59.99348526 35.25802277 59.23306427 34.85768127 58.44960022 C33.25302952 55.00311497 33.25302952 55.00311497 31 52 C29.51361008 51.84344973 28.02050873 51.74933057 26.52734375 51.68359375 C25.71773193 51.64548584 24.90812012 51.60737793 24.07397461 51.56811523 C23.03893799 51.52501221 22.00390137 51.48190918 20.9375 51.4375 C17.658125 51.293125 14.37875 51.14875 11 51 C11 63.21 11 75.42 11 88 C7.37 88 3.74 88 0 88 C0 58.96 0 29.92 0 0 Z " fill="#B41925" transform="translate(112,59)"/>
<path d="M0 0 C14.19 0 28.38 0 43 0 C43.16043524 16.48917717 43.16043524 16.48917717 43.1953125 23.5859375 C43.2191083 28.40480444 43.24707904 33.22336378 43.30175781 38.04199219 C43.34562106 41.93239433 43.36922115 45.82246604 43.37950897 49.71309662 C43.38682855 51.18808942 43.40111924 52.66306672 43.42292023 54.13791656 C43.55997661 63.80541816 43.6203219 74.44616152 37.12042236 82.25933838 C30.66200307 88.4855117 24.4461114 90.15424789 15.625 90.5 C8.73518964 90.33546722 3.49299127 89.28145301 -2 85 C-6.06568852 80.71362693 -9.89294064 75.78354337 -10.125 69.75 C-10.08375 68.8425 -10.0425 67.935 -10 67 C-7.24921116 66.08307039 -5.64051087 65.89113917 -2.8125 65.9375 C-1.554375 65.958125 -0.29625 65.97875 1 66 C1.14695312 66.60328125 1.29390625 67.2065625 1.4453125 67.828125 C2.57321576 71.84709065 3.52386413 74.4994469 6.4375 77.5625 C11.56527472 79.63160208 16.5407737 79.81557755 22 79 C26.19238569 77.1021369 27.96469599 75.08442581 30 71 C30.46701277 68.03687122 30.46701277 68.03687122 30.43237305 64.83276367 C30.45216721 63.61187546 30.47196136 62.39098724 30.49235535 61.13310242 C30.50194023 59.17036125 30.50194023 59.17036125 30.51171875 57.16796875 C30.52857512 55.80746345 30.54672666 54.44697363 30.56611633 53.08650208 C30.61351913 49.51751545 30.64339087 45.94859161 30.66955566 42.37939453 C30.69941062 38.73262215 30.7457637 35.08606159 30.79101562 31.43945312 C30.87849059 24.29295219 30.93851621 17.14696105 31 10 C20.77 10 10.54 10 0 10 C0 6.7 0 3.4 0 0 Z " fill="#1C1E22" transform="translate(47,58)"/>
<path d="M0 0 C4.33125 -0.061875 8.6625 -0.12375 13.125 -0.1875 C14.47996582 -0.21481201 15.83493164 -0.24212402 17.23095703 -0.27026367 C18.85300049 -0.28150269 18.85300049 -0.28150269 20.5078125 -0.29296875 C21.60754395 -0.3086792 22.70727539 -0.32438965 23.84033203 -0.34057617 C28.77594457 0.19142657 32.05634787 2.24097546 35.875 5.3125 C39.14486139 9.51358404 38.61612522 14.62458567 38.41796875 19.70703125 C37.85508076 24.14174692 37.19450739 25.88955859 34 29 C28.74801912 32.17307178 24.422719 33.12990808 18.359375 33.09765625 C17.39483398 33.09515869 16.43029297 33.09266113 15.43652344 33.09008789 C13.61169434 33.07643188 13.61169434 33.07643188 11.75 33.0625 C7.8725 33.041875 3.995 33.02125 0 33 C0 22.11 0 11.22 0 0 Z " fill="#F7E5E8" transform="translate(123,68)"/>
<path d="M0 0 C41 0 41 0 48 2 C48 2.33 48 2.66 48 3 C45.03 2.67 42.06 2.34 39 2 C20.685 1.505 20.685 1.505 2 1 C2.33 28.72 2.66 56.44 3 85 C4.65 85 6.3 85 8 85 C8.02505615 83.94498291 8.0501123 82.88996582 8.07592773 81.80297852 C8.16984109 77.90229372 8.27010034 74.00179375 8.37231445 70.10131836 C8.41572439 68.41060701 8.45739489 66.71985009 8.49731445 65.02905273 C8.55487094 62.60386394 8.61860649 60.17890585 8.68359375 57.75390625 C8.70030624 56.99348526 8.71701874 56.23306427 8.73423767 55.44960022 C8.88612829 50.11387171 8.88612829 50.11387171 10 49 C11.63472882 48.91299658 13.27314055 48.89298937 14.91015625 48.90234375 C15.89951172 48.90556641 16.88886719 48.90878906 17.90820312 48.91210938 C18.94912109 48.92048828 19.99003906 48.92886719 21.0625 48.9375 C22.62967773 48.94426758 22.62967773 48.94426758 24.22851562 48.95117188 C26.8190666 48.96300087 29.40950559 48.97948311 32 49 C32 49.99 32 50.98 32 52 C25.07 51.67 18.14 51.34 11 51 C11 63.21 11 75.42 11 88 C7.37 88 3.74 88 0 88 C0 58.96 0 29.92 0 0 Z " fill="#9E2832" transform="translate(112,59)"/>
<path d="M0 0 C1.00293091 0.00326294 1.00293091 0.00326294 2.02612305 0.0065918 C4.05442723 0.00973796 6.08125275 -0.01365238 8.109375 -0.0390625 C9.39263672 -0.03970703 10.67589844 -0.04035156 11.99804688 -0.04101562 C13.17407471 -0.04399658 14.35010254 -0.04697754 15.56176758 -0.05004883 C21.10953345 0.59582818 25.13074732 3.83027461 28.66601562 8.00585938 C30.93187785 12.80463186 29.59921177 18.24743213 28.75976562 23.32226562 C28.42976563 23.32226562 28.09976563 23.32226562 27.75976562 23.32226562 C27.74558594 22.525625 27.73140625 21.72898437 27.71679688 20.90820312 C27.56318398 13.84443531 27.56318398 13.84443531 24.50976562 7.69726562 C20.01252352 3.81328381 16.22967521 3.07496448 10.36523438 2.90820312 C9.28137451 2.87259277 8.19751465 2.83698242 7.08081055 2.80029297 C5.71674072 2.76629395 4.3526709 2.73229492 2.94726562 2.69726562 C-1.40460938 2.57351562 -5.75648437 2.44976562 -10.24023438 2.32226562 C-10.24023438 13.21226563 -10.24023438 24.10226563 -10.24023438 35.32226562 C-10.90023437 34.99226563 -11.56023437 34.66226563 -12.24023438 34.32226562 C-12.28961138 29.80161134 -12.3259426 25.28111346 -12.35009766 20.76025391 C-12.36016555 19.22181464 -12.37382084 17.68339455 -12.39111328 16.14501953 C-12.41532754 13.9358243 -12.42670928 11.72688168 -12.43554688 9.51757812 C-12.44586945 8.82793976 -12.45619202 8.13830139 -12.46682739 7.42776489 C-12.46722916 5.72425656 -12.36214463 4.0214062 -12.24023438 2.32226562 C-8.89556459 -1.02240416 -4.54609776 0.02519248 0 0 Z " fill="#9B222C" transform="translate(133.240234375,65.677734375)"/>
<path d="M0 0 C2.88473856 3.42323351 5.11143036 6.80674312 7.1640625 10.78125 C7.72867188 11.87050781 8.29328125 12.95976563 8.875 14.08203125 C9.4525 15.20996094 10.03 16.33789062 10.625 17.5 C11.21023437 18.62792969 11.79546875 19.75585938 12.3984375 20.91796875 C14.80265311 25.57751505 17.04994995 30.12487487 19 35 C14.71 35 10.42 35 6 35 C6 34.67 6 34.34 6 34 C9.3 34 12.6 34 16 34 C15.505 31.525 15.505 31.525 15 29 C14.34 29 13.68 29 13 29 C11.65929682 26.39939496 10.32726646 23.79495084 9 21.1875 C8.6184375 20.44951172 8.236875 19.71152344 7.84375 18.95117188 C7.4828125 18.23896484 7.121875 17.52675781 6.75 16.79296875 C6.41484375 16.1383667 6.0796875 15.48376465 5.734375 14.80932617 C5 13 5 13 5 10 C4.34 10 3.68 10 3 10 C1 7 1 7 1 3 C0.34 3 -0.32 3 -1 3 C-0.67 2.01 -0.34 1.02 0 0 Z " fill="#A5343E" transform="translate(156,112)"/>
<path d="M0 0 C6.08666919 2.47975411 9.48663538 7.09359315 12 13 C14.37643543 20.98746354 13.0747305 28.42298556 10 36 C9.67 36 9.34 36 9 36 C9.165 34.9275 9.33 33.855 9.5 32.75 C10.53059564 24.21727433 10.96373623 16.76231678 7 9 C7 8.01 7 7.02 7 6 C6.401875 5.71125 5.80375 5.4225 5.1875 5.125 C3 4 3 4 0 2 C0 1.34 0 0.68 0 0 Z " fill="#9F3841" transform="translate(160,62)"/>
<path d="M0 0 C5.59608973 -0.09993017 8.48440052 0.81574883 12.5625 4.75 C16.0169929 8.91828676 16.41537244 11.70946085 16 17.0625 C15.70883901 19.04830892 15.38951572 21.03111978 15 23 C14.67 23 14.34 23 14 23 C13.98582031 22.20335938 13.97164062 21.40671875 13.95703125 20.5859375 C13.80341835 13.52216969 13.80341835 13.52216969 10.75 7.375 C8.11969577 5.10337362 6.2382285 4.10781501 3 3 C1.1875 1.375 1.1875 1.375 0 0 Z " fill="#A52C35" transform="translate(147,66)"/>
<path d="M0 0 C6.6 0 13.2 0 20 0 C20 0.99 20 1.98 20 3 C13.07 2.67 6.14 2.34 -1 2 C-0.67 1.34 -0.34 0.68 0 0 Z " fill="#9D2933" transform="translate(124,108)"/>
<path d="M0 0 C5.01736387 2.04411121 8.12423935 5.54039892 10.875 10.125 C12 13 12 13 11 16 C7 10 7 10 7 6 C6.401875 5.71125 5.80375 5.4225 5.1875 5.125 C3 4 3 4 0 2 C0 1.34 0 0.68 0 0 Z " fill="#9E2F39" transform="translate(160,62)"/>
<path d="M0 0 C6 7.71428571 6 7.71428571 6 11 C1.71 11 -2.58 11 -7 11 C-7 10.67 -7 10.34 -7 10 C-3.7 10 -0.4 10 3 10 C2.67 8.35 2.34 6.7 2 5 C1.34 5 0.68 5 0 5 C0 3.35 0 1.7 0 0 Z " fill="#A03E45" transform="translate(169,136)"/>
<path d="M0 0 C0.66 0 1.32 0 2 0 C2 0.66 2 1.32 2 2 C2.66 2 3.32 2 4 2 C4.66 4.64 5.32 7.28 6 10 C6.66 10 7.32 10 8 10 C8.33 12.31 8.66 14.62 9 17 C6.25945632 13.67513619 4.57623951 10.16942114 2.8125 6.25 C2.28269531 5.07953125 1.75289062 3.9090625 1.20703125 2.703125 C0.80871094 1.81109375 0.41039062 0.9190625 0 0 Z " fill="#9E2C35" transform="translate(144,111)"/>
<path d="M0 0 C0 0.66 0 1.32 0 2 C-3.58045212 4.74778884 -6.4923533 6.46968862 -11 7 C-10.67 7.99 -10.34 8.98 -10 10 C-10.66 10 -11.32 10 -12 10 C-12 8.35 -12 6.7 -12 5 C-10.02 4.67 -8.04 4.34 -6 4 C-6 3.34 -6 2.68 -6 2 C-3 0 -3 0 0 0 Z " fill="#A22D37" transform="translate(166,101)"/>
<path d="M0 0 C0.33 1.32 0.66 2.64 1 4 C-1.51833083 6.56307274 -4.03003017 8.96679484 -7 11 C-10.5 10.9375 -10.5 10.9375 -13 10 C-12.484375 9.7525 -11.96875 9.505 -11.4375 9.25 C-10.2309375 8.63125 -10.2309375 8.63125 -9 8 C-8.42121094 7.70867187 -7.84242188 7.41734375 -7.24609375 7.1171875 C-3.69272345 5.23293686 -1.26605143 3.93882668 0 0 Z " fill="#A12F39" transform="translate(160,91)"/>
<path d="M0 0 C3.30979968 2.81332973 5.1048141 6.141943 7 10 C6.609375 12.22265625 6.609375 12.22265625 6 14 C4.99515796 12.04414675 3.99626195 10.08523763 3 8.125 C2.1646875 6.48917969 2.1646875 6.48917969 1.3125 4.8203125 C0 2 0 2 0 0 Z " fill="#9E2C36" transform="translate(162,124)"/>
<path d="M0 0 C2 2 2 2 2 5 C-1.3 5 -4.6 5 -8 5 C-8.33 4.01 -8.66 3.02 -9 2 C-8.01 2 -7.02 2 -6 2 C-6 2.66 -6 3.32 -6 4 C-4.02 3.67 -2.04 3.34 0 3 C0 2.01 0 1.02 0 0 Z " fill="#A4242D" transform="translate(170,141)"/>
<path d="M0 0 C0.66 0 1.32 0 2 0 C4.49310643 3.73965964 4.0603261 5.29070641 3.625 9.6875 C3.51414063 10.86699219 3.40328125 12.04648438 3.2890625 13.26171875 C3.19367188 14.16535156 3.09828125 15.06898437 3 16 C2.67 16 2.34 16 2 16 C1.93941406 15.18015625 1.87882813 14.3603125 1.81640625 13.515625 C1.73261719 12.43796875 1.64882812 11.3603125 1.5625 10.25 C1.48128906 9.18265625 1.40007812 8.1153125 1.31640625 7.015625 C1.05909227 4.56320038 0.68187782 2.36078709 0 0 Z " fill="#B24E57" transform="translate(159,73)"/>
<path d="M0 0 C3 1 3 1 4.75 3.8125 C6.05483179 7.13982105 6.02866653 7.79584277 5 11 C4.16151196 9.54462432 3.32936066 8.08559627 2.5 6.625 C1.80390625 5.40683594 1.80390625 5.40683594 1.09375 4.1640625 C0 2 0 2 0 0 Z " fill="#9E3039" transform="translate(155,132)"/>
</svg>
